<?xml version="1.0" standalone="no"?>
<!DOCTYPE svg PUBLIC "-//W3C//DTD SVG 20010904//EN"
 "http://www.w3.org/TR/2001/REC-SVG-20010904/DTD/svg10.dtd">
<svg version="1.0" xmlns="http://www.w3.org/2000/svg"
 width="461.000000pt" height="461.000000pt" viewBox="0 0 461.000000 461.000000"
 preserveAspectRatio="xMidYMid meet">
<metadata>
Created by potrace 1.14, written by Peter Selinger 2001-2017
</metadata>
<g transform="translate(0.000000,461.000000) scale(0.100000,-0.100000)"
fill="#000000" stroke="none">
<path d="M1755 4475 c-531 -134 -1004 -470 -1307 -928 -76 -116 -188 -330
-223 -427 -34 -96 -57 -168 -76 -245 -27 -102 -29 -113 -35 -155 -2 -19 -7
-46 -9 -60 -22 -115 -25 -223 -7 -265 7 -16 28 -40 46 -53 33 -22 43 -23 263
-27 125 -1 239 -5 253 -8 14 -3 59 -11 100 -17 93 -15 256 -68 341 -110 35
-18 140 -82 232 -142 256 -168 375 -222 582 -268 107 -23 227 -33 385 -34 115
0 260 9 303 19 12 3 33 7 47 9 69 12 164 37 215 57 136 53 209 93 420 231 322
211 517 266 946 265 179 0 188 1 219 23 40 29 69 90 64 138 -6 68 -15 147 -19
167 -3 11 -7 38 -10 60 -3 22 -13 69 -21 105 -9 36 -17 74 -20 84 -2 11 -18
63 -36 115 -18 53 -33 98 -33 101 -1 3 -9 22 -18 44 -9 21 -17 40 -17 43 0 3
-25 55 -56 116 -278 554 -766 962 -1360 1138 -129 38 -192 42 -231 13 -65 -49
-84 -113 -53 -182 24 -52 50 -69 157 -98 172 -46 333 -114 481 -201 78 -46
157 -98 179 -118 6 -5 26 -21 44 -35 18 -14 57 -47 87 -75 30 -27 62 -57 71
-65 43 -39 175 -198 229 -278 72 -105 158 -266 202 -377 51 -127 76 -216 115
-407 3 -16 -5 -18 -68 -19 -338 -4 -608 -70 -842 -207 -44 -25 -132 -81 -195
-123 -204 -136 -337 -197 -485 -223 -16 -3 -41 -8 -55 -11 -43 -9 -182 -19
-260 -19 -81 1 -254 13 -273 19 -7 3 -23 6 -37 9 -112 18 -287 89 -390 157
-14 9 -52 34 -85 55 -33 21 -62 41 -65 44 -9 9 -173 106 -225 133 -214 110
-455 162 -768 166 l-67 1 5 28 c25 136 42 203 75 300 38 110 36 106 100 237
43 90 175 305 199 325 3 3 24 27 46 55 98 121 266 272 420 375 163 110 416
220 621 270 122 30 156 188 56 259 -37 26 -94 32 -157 16z"/>
<path d="M2254 3963 c-52 -94 -64 -116 -123 -216 -28 -49 -51 -91 -51 -93 0
-2 -12 -23 -26 -46 -70 -110 -260 -510 -285 -600 -7 -24 -15 -52 -18 -63 -3
-11 -5 -63 -5 -115 1 -77 6 -108 28 -164 66 -173 213 -303 398 -352 98 -25
301 -3 368 41 8 5 31 19 51 30 100 55 204 188 241 308 22 72 29 180 16 242
-28 138 -166 428 -388 820 -62 110 -123 217 -134 237 -12 21 -24 38 -28 38 -3
0 -23 -30 -44 -67z"/>
<path d="M330 2059 c-69 -3 -132 -9 -140 -13 -18 -8 -58 -65 -60 -86 -6 -45 3
-73 34 -108 l34 -37 497 0 c273 -1 501 3 508 7 19 12 -68 93 -143 132 -62 33
-195 77 -270 90 -102 17 -285 23 -460 15z"/>
<path d="M3988 2064 c-2 -1 -25 -4 -53 -7 -27 -3 -57 -7 -65 -9 -8 -3 -31 -8
-50 -13 -69 -16 -192 -75 -332 -160 -9 -5 -43 -25 -75 -44 -32 -19 -65 -40
-73 -46 -14 -12 -133 -73 -211 -109 -28 -13 -36 -22 -32 -37 3 -10 13 -19 22
-19 9 0 21 -4 26 -8 15 -13 141 -49 215 -62 80 -15 255 -15 335 -1 180 31 269
67 424 170 97 65 152 88 227 95 29 2 60 9 70 14 58 31 79 103 49 166 -27 57
-56 64 -280 69 -107 2 -196 3 -197 1z"/>
<path d="M1557 1613 c-1 0 -45 -4 -97 -7 -149 -10 -220 -16 -290 -23 -36 -3
-249 -7 -475 -8 -226 -2 -416 -3 -422 -4 -7 0 -19 -14 -27 -29 -13 -25 -12
-33 4 -80 10 -28 40 -93 67 -143 39 -75 53 -93 73 -95 14 -2 43 -6 65 -10 22
-3 54 -7 70 -10 17 -2 59 -8 95 -13 64 -10 411 -8 460 2 14 3 47 8 73 12 27 3
90 14 140 25 51 10 110 21 132 24 23 4 51 8 63 11 147 28 577 25 681 -5 16 -4
31 -6 34 -4 7 8 234 -45 367 -86 272 -84 445 -131 530 -146 14 -3 36 -7 50
-10 27 -5 70 -12 135 -20 73 -10 309 -13 370 -4 203 28 352 77 450 148 42 30
145 131 145 142 0 4 9 17 19 29 11 12 38 65 61 117 68 156 43 181 -85 84 -149
-113 -343 -192 -510 -207 -114 -10 -340 -3 -364 11 -3 2 -28 7 -56 10 -53 7
-260 58 -410 101 -130 38 -261 74 -287 79 -13 3 -43 10 -68 16 -71 18 -294 59
-352 65 -29 3 -64 8 -78 10 -70 11 -214 18 -378 19 -101 1 -184 0 -185 -1z"/>
<path d="M1699 1046 c-2 -2 -40 -6 -84 -9 -66 -5 -169 -22 -320 -53 -40 -8
-142 -24 -205 -31 -75 -9 -410 -10 -487 -1 -29 3 -53 3 -53 0 0 -19 197 -224
311 -323 172 -150 426 -303 623 -375 114 -42 206 -72 206 -68 0 3 8 1 18 -5
15 -8 151 -38 247 -55 118 -21 489 -29 600 -13 193 28 287 49 435 97 245 80
490 213 705 385 78 62 207 186 201 192 -2 2 -22 -1 -44 -7 -22 -6 -60 -13 -84
-16 -24 -3 -67 -9 -97 -14 -58 -8 -369 -6 -411 4 -14 3 -47 8 -75 12 -27 3
-59 8 -70 10 -11 2 -36 6 -55 9 -108 19 -339 83 -595 166 -89 29 -222 58 -340
75 -27 3 -59 8 -70 11 -26 5 -351 13 -356 9z"/>
</g>
</svg>
